<?xml version="1.0" encoding="UTF-8"?>
<svg id="Layer_1" data-name="Layer 1" xmlns="http://www.w3.org/2000/svg" viewBox="0 0 2475.03 855.21">
  <defs>
    <style>
      .cls-1 {
        fill: #f05223;
      }
    </style>
  </defs>
  <polygon class="cls-1" points="1526.76 183.64 1773.15 183.64 1773.15 854.14 1953.69 854.14 1953.69 183.64 2200.65 183.64 2200.65 31.78 1526.76 31.78 1526.76 183.64"/>
  <rect class="cls-1" x="2293.9" y="31.78" width="181.13" height="822.36"/>
  <path class="cls-1" d="M414.77,394.11v133.96h180.87c-5.59,59.17-24.94,103.27-58.06,132.32-33.13,29.03-78.53,43.54-136.21,43.54-40.57,0-74.99-7.92-103.27-23.73-28.29-15.81-51.16-36.56-68.66-62.25-17.5-25.68-30.24-54.89-38.23-87.64-8.01-32.75-12-65.88-12-99.37,0-37.95,4.27-73.86,12.83-107.74,8.56-33.87,21.78-63.64,39.64-89.32,17.87-25.68,40.76-45.96,68.66-60.83,27.92-14.89,61.21-22.34,99.93-22.34,21.58,0,41.77,2.6,60.56,7.81,18.79,5.23,35.73,12.94,50.81,23.17,15.07,10.25,27.99,23.26,38.79,39.07,10.79,15.84,18.79,34.34,24,55.56h171.37c-5.2-44.3-17.68-83.55-37.39-117.81-19.74-34.23-44.86-63.08-75.37-86.52-30.52-23.44-65.59-41.32-105.22-53.59C488.17,6.12,445.83,0,400.82,0c-63.65,0-120.4,11.35-170.26,34.05-49.87,22.7-91.83,53.59-125.88,92.66-34.05,39.08-60.01,84.77-77.88,137.05C8.94,316.05,0,371.77,0,430.94s9.68,118.08,29.04,169.98c19.35,51.93,46.42,96.77,81.22,134.54,34.79,37.77,76.48,67.18,125.04,88.2,48.56,21.02,102.06,31.54,160.49,31.54,2.58,0,5.11,0,7.66,0h-.02c.13,0,.26,0,.39,0,34.44.04,122.06-11.47,183.99-43.36,49.77-25.63,92.51-64.87,123.35-126.76,12.31-24.71,24.33-56.65,30.8-103.44,3.85-27.85,5.91-54.52,7.27-80.67,1.85-35.52.96-69.82.78-105.38l-335.24-1.49Z"/>
  <path class="cls-1" d="M1053.93,40.48l-271.27,804.96h179.18l55.14-179.73h316.47l53.48,179.73h183.06L1303.11,40.48h-249.19ZM1058.89,534.49l112.51-360.87h11.36l108.8,360.87h-232.66Z"/>
</svg>